<?xml version="1.0" standalone="no"?>
<!DOCTYPE svg PUBLIC "-//W3C//DTD SVG 20010904//EN"
 "http://www.w3.org/TR/2001/REC-SVG-20010904/DTD/svg10.dtd">
<svg version="1.0" xmlns="http://www.w3.org/2000/svg"
 width="700.000000pt" height="700.000000pt" viewBox="0 0 700.000000 700.000000"
 preserveAspectRatio="xMidYMid meet">
<metadata>
Created by potrace 1.14, written by Peter Selinger 2001-2017
</metadata>
<g transform="translate(0.000000,700.000000) scale(0.100000,-0.100000)"
fill="#000000" stroke="none">
<path d="M3395 5374 c-298 -34 -557 -160 -753 -368 -376 -398 -427 -1017 -120
-1469 223 -329 579 -517 978 -517 328 0 608 115 835 344 216 217 330 477 342
777 14 345 -94 631 -332 878 -189 196 -440 320 -708 350 -92 10 -177 12 -242
5z m285 -501 c83 -17 194 -64 264 -112 129 -89 235 -240 272 -386 l6 -25 -159
0 -159 0 -42 64 c-46 71 -88 106 -165 141 -217 99 -473 14 -567 -188 -113
-241 -28 -531 185 -632 144 -68 354 -45 475 51 47 37 110 118 110 141 0 10
-43 13 -215 13 l-215 0 0 59 c0 32 3 86 6 120 l7 61 380 0 380 0 -6 -84 c-26
-333 -230 -592 -532 -677 -113 -32 -287 -32 -399 0 -382 107 -604 472 -532
871 49 267 231 481 482 566 134 44 266 50 424 17z"/>
<path d="M3070 2685 c0 -20 5 -25 25 -25 20 0 25 5 25 25 0 20 -5 25 -25 25
-20 0 -25 -5 -25 -25z"/>
<path d="M3410 2685 c0 -20 5 -25 25 -25 20 0 25 5 25 25 0 20 -5 25 -25 25
-20 0 -25 -5 -25 -25z"/>
<path d="M4280 2685 c0 -20 5 -25 25 -25 20 0 25 5 25 25 0 20 -5 25 -25 25
-20 0 -25 -5 -25 -25z"/>
<path d="M1580 2687 c-83 -29 -108 -154 -43 -219 63 -62 175 -42 209 37 25 61
21 65 -51 65 -58 0 -65 -2 -65 -20 0 -16 7 -20 35 -20 40 0 45 -12 13 -34 -33
-23 -75 -20 -103 9 -42 41 -27 113 27 136 24 10 35 9 64 -4 19 -9 34 -21 34
-27 0 -5 14 -10 30 -10 30 0 30 0 16 29 -29 55 -102 81 -166 58z"/>
<path d="M1800 2564 c0 -135 0 -135 23 -132 21 3 22 7 25 136 l3 132 -26 0
-25 0 0 -136z"/>
<path d="M2130 2565 c0 -128 1 -135 20 -135 11 0 20 4 20 9 0 5 12 5 28 -1 36
-14 94 -3 117 22 9 10 20 39 22 63 4 36 1 48 -21 74 -30 36 -71 48 -109 34
-26 -10 -27 -10 -27 29 0 36 -3 40 -25 40 l-25 0 0 -135z m142 8 c22 -20 23
-56 2 -77 -18 -19 -65 -21 -82 -4 -7 7 -12 24 -12 39 0 52 54 77 92 42z"/>
<path d="M2630 2564 c0 -135 0 -135 23 -132 21 3 22 7 25 136 l3 132 -26 0
-25 0 0 -136z"/>
<path d="M3910 2565 l0 -135 25 0 25 0 0 135 0 135 -25 0 -25 0 0 -135z"/>
<path d="M2810 2560 l0 -130 43 0 c115 1 177 45 177 126 0 94 -46 134 -155
134 l-65 0 0 -130z m147 58 c28 -26 31 -76 5 -108 -11 -13 -33 -23 -60 -27
l-42 -6 0 82 0 81 37 0 c24 0 45 -8 60 -22z"/>
<path d="M4092 2563 l3 -128 25 0 c23 0 25 4 28 47 l3 47 42 3 c35 2 43 7 45
26 3 20 -1 22 -42 22 -44 0 -46 1 -46 29 0 28 2 30 48 33 40 3 47 6 50 26 3
21 1 22 -78 22 l-81 0 3 -127z"/>
<path d="M3528 2643 c-41 -42 -46 -53 -24 -53 10 0 15 -18 18 -60 5 -69 17
-86 71 -95 35 -7 37 -6 37 19 0 18 -5 26 -18 26 -29 0 -42 21 -42 67 0 41 1
43 30 43 23 0 30 4 30 20 0 15 -7 20 -29 20 -24 0 -30 5 -33 26 l-3 25 -37
-38z"/>
<path d="M1943 2625 c-68 -29 -80 -120 -22 -169 69 -59 169 -15 169 74 0 54
-14 79 -55 96 -42 17 -51 17 -92 -1z m78 -45 c23 -13 26 -71 5 -89 -24 -20
-69 -9 -85 20 -13 24 -13 29 2 53 18 27 45 33 78 16z"/>
<path d="M2422 2625 c-39 -17 -65 -69 -56 -115 13 -61 91 -98 147 -69 16 9 22
9 25 0 2 -6 12 -11 23 -11 17 0 19 8 19 100 l0 100 -37 -1 c-21 -1 -49 2 -63
5 -14 3 -40 -1 -58 -9z m92 -57 c20 -29 20 -47 -1 -70 -40 -45 -115 -1 -94 55
16 42 70 50 95 15z"/>
<path d="M3213 2626 c-62 -28 -74 -107 -23 -158 28 -27 36 -30 75 -25 31 3 45
1 45 -7 0 -34 -66 -50 -90 -21 -15 18 -50 20 -50 3 1 -57 119 -80 165 -33 24
23 25 31 25 134 l0 110 -32 -2 c-18 0 -44 2 -58 6 -14 4 -38 1 -57 -7z m94
-65 c14 -29 4 -55 -28 -71 -46 -25 -94 51 -57 88 21 21 71 10 85 -17z"/>
<path d="M3714 2631 c-12 -5 -31 -22 -43 -37 -44 -56 -13 -147 55 -160 21 -4
50 -2 66 4 16 6 30 6 34 1 3 -5 12 -9 20 -9 11 0 14 20 14 100 l0 100 -32 -1
c-18 -1 -46 1 -63 4 -16 4 -40 2 -51 -2z m80 -57 c19 -18 21 -65 4 -82 -31
-31 -98 -3 -98 40 0 49 61 76 94 42z"/>
<path d="M4453 2625 c-18 -8 -33 -10 -33 -5 0 6 -9 10 -20 10 -19 0 -20 -7
-20 -100 l0 -100 25 0 c24 0 25 2 25 69 0 75 12 95 52 89 21 -3 23 -9 28 -78
5 -68 7 -75 28 -78 21 -3 22 -1 22 81 0 67 -3 87 -17 99 -28 24 -55 28 -90 13z"/>
<path d="M4660 2629 c-39 -16 -60 -49 -60 -97 0 -78 76 -126 143 -91 16 9 22
9 25 0 2 -6 12 -11 23 -11 17 0 19 8 19 100 l0 100 -32 -1 c-18 -1 -46 1 -63
4 -16 4 -41 2 -55 -4z m82 -56 c37 -34 15 -93 -35 -93 -40 0 -57 15 -57 51 0
52 54 77 92 42z"/>
<path d="M4933 2625 c-18 -8 -33 -10 -33 -5 0 6 -9 10 -20 10 -19 0 -20 -7
-20 -100 l0 -100 25 0 c24 0 25 2 25 69 0 75 12 95 52 89 21 -3 23 -9 28 -78
5 -68 7 -75 28 -78 21 -3 22 -1 22 81 0 67 -3 87 -17 99 -28 24 -55 28 -90 13z"/>
<path d="M5140 2629 c-39 -15 -60 -49 -60 -97 0 -61 41 -102 100 -102 33 0 48
6 71 29 16 16 29 34 29 40 0 16 -46 13 -60 -4 -15 -18 -61 -20 -78 -3 -17 17
-15 64 4 82 19 20 44 20 70 1 18 -14 64 -21 64 -9 0 19 -26 48 -55 60 -39 16
-50 16 -85 3z"/>
<path d="M5370 2633 c-30 -11 -60 -47 -66 -80 -19 -101 97 -164 169 -91 28 28
30 33 13 36 -10 2 -33 -4 -51 -14 -31 -17 -35 -17 -59 -1 -42 28 -31 37 49 37
74 0 75 0 75 26 0 38 -18 64 -55 80 -36 15 -50 16 -75 7z m68 -55 c21 -21 13
-28 -33 -28 -43 0 -58 14 -38 33 11 11 58 8 71 -5z"/>
<path d="M3070 2530 l0 -100 25 0 25 0 0 100 0 100 -25 0 -25 0 0 -100z"/>
<path d="M3410 2530 l0 -100 25 0 25 0 0 100 0 100 -25 0 -25 0 0 -100z"/>
<path d="M4280 2530 l0 -100 25 0 25 0 0 100 0 100 -25 0 -25 0 0 -100z"/>
<path d="M2190 1930 c0 -33 4 -60 10 -60 6 0 10 11 10 25 0 21 5 25 33 26 l32
1 -30 7 c-21 4 -31 13 -33 28 -3 19 2 22 35 26 36 3 35 4 -9 5 l-48 2 0 -60z"/>
<path d="M2340 1942 c0 -26 5 -53 12 -60 20 -20 76 -15 88 7 13 25 13 101 0
101 -5 0 -10 -20 -10 -44 0 -49 -18 -71 -50 -61 -17 5 -20 15 -20 56 0 27 -4
49 -10 49 -5 0 -10 -22 -10 -48z"/>
<path d="M2528 1983 c20 -4 22 -10 22 -59 0 -30 5 -54 10 -54 6 0 10 24 10 54
0 49 2 55 23 59 12 2 -3 4 -33 4 -30 0 -45 -2 -32 -4z"/>
<path d="M2681 1945 c-1 -59 11 -75 56 -75 27 0 35 5 43 26 13 33 13 94 0 94
-5 0 -10 -19 -10 -43 0 -46 -13 -67 -41 -67 -23 0 -32 16 -40 70 l-6 45 -2
-50z"/>
<path d="M2871 1928 c0 -48 2 -58 9 -40 12 27 36 29 52 2 15 -24 33 -27 20 -3
-7 12 -5 24 5 39 23 36 2 64 -47 64 l-40 0 1 -62z m67 43 c25 -16 9 -46 -26
-49 -28 -3 -32 0 -32 21 0 13 3 27 7 30 9 10 35 8 51 -2z"/>
<path d="M3040 1930 l0 -60 53 2 c50 1 50 2 10 5 -35 3 -43 8 -43 24 0 15 7
19 36 19 21 0 33 4 29 10 -3 6 -19 10 -36 10 -22 0 -29 5 -29 19 0 15 8 21 38
24 34 3 33 4 -10 5 l-48 2 0 -60z"/>
<path d="M3306 1968 c-34 -48 -7 -98 52 -98 38 0 62 23 62 59 0 57 -82 85
-114 39z m84 -8 c25 -25 25 -32 2 -60 -14 -18 -25 -21 -45 -16 -35 8 -46 49
-22 76 23 25 40 25 65 0z"/>
<path d="M3501 1928 c1 -35 4 -51 6 -35 4 23 9 27 36 28 l32 1 -30 7 c-45 9
-41 44 5 52 l35 6 -42 2 -43 1 1 -62z"/>
<path d="M3741 1928 c1 -42 3 -55 8 -38 5 18 15 26 36 29 l30 4 -30 6 c-45 9
-42 44 5 52 l35 6 -42 2 -43 1 1 -62z"/>
<path d="M3890 1930 c0 -33 4 -60 10 -60 6 0 10 27 10 60 0 33 -4 60 -10 60
-6 0 -10 -27 -10 -60z"/>
<path d="M3990 1930 c0 -68 17 -82 22 -18 l3 42 29 -42 c41 -60 56 -55 56 18
0 70 -18 81 -22 14 l-3 -47 -33 47 c-18 25 -37 46 -43 46 -5 0 -9 -27 -9 -60z"/>
<path d="M4201 1953 c-10 -21 -22 -49 -26 -63 -7 -24 -7 -24 12 -7 25 22 69
22 82 0 5 -10 12 -15 15 -12 8 8 -43 119 -55 119 -5 0 -17 -17 -28 -37z m49
-30 c0 -7 -11 -13 -24 -13 -24 0 -24 2 -14 32 10 29 12 30 25 13 7 -11 13 -25
13 -32z"/>
<path d="M4360 1930 c0 -68 17 -82 22 -17 l3 42 30 -42 c42 -60 55 -56 55 17
0 33 -4 60 -10 60 -5 0 -10 -21 -10 -46 l0 -47 -35 47 c-20 25 -40 46 -45 46
-6 0 -10 -27 -10 -60z"/>
<path d="M4556 1968 c-21 -30 -20 -61 2 -81 20 -19 77 -23 87 -7 4 6 -5 7 -23
4 -50 -10 -82 45 -46 80 18 19 28 20 56 5 16 -9 19 -8 16 3 -3 7 -21 14 -40
16 -28 2 -40 -2 -52 -20z"/>
<path d="M4720 1930 l0 -60 53 2 c50 1 50 2 10 5 -35 3 -43 8 -43 24 0 15 7
19 35 19 19 0 35 5 35 10 0 6 -16 10 -35 10 -28 0 -35 4 -35 19 0 15 8 21 38
24 34 3 33 4 -10 5 l-48 2 0 -60z"/>
</g>
</svg>
